<mxfile host="app.diagrams.net" modified="2023-04-06T10:27:52.175Z" agent="Mozilla/5.0 (Macintosh; Intel Mac OS X 10_15_7) AppleWebKit/537.36 (KHTML, like Gecko) Chrome/110.0.0.0 Safari/537.36" etag="GCPcZ5m0notnoKFBdnUQ" version="21.1.4" type="github">
  <diagram name="第 1 页" id="zzSldxRVRqwI4bkoozq8">
    <mxGraphModel dx="1306" dy="1198" grid="0" gridSize="10" guides="1" tooltips="1" connect="1" arrows="1" fold="1" page="0" pageScale="1" pageWidth="827" pageHeight="1169" math="0" shadow="0">
      <root>
        <mxCell id="0" />
        <mxCell id="1" parent="0" />
        <mxCell id="BipAKc5l0U_uYSt-I5Qa-4" style="edgeStyle=orthogonalEdgeStyle;rounded=0;orthogonalLoop=1;jettySize=auto;html=1;entryX=0.5;entryY=0;entryDx=0;entryDy=0;" parent="1" source="BipAKc5l0U_uYSt-I5Qa-2" target="BipAKc5l0U_uYSt-I5Qa-3" edge="1">
          <mxGeometry relative="1" as="geometry" />
        </mxCell>
        <mxCell id="BipAKc5l0U_uYSt-I5Qa-2" value="入参构建" style="swimlane;whiteSpace=wrap;html=1;" parent="1" vertex="1">
          <mxGeometry x="290" y="-260" width="266" height="180" as="geometry">
            <mxRectangle x="240" y="120" width="90" height="30" as="alternateBounds" />
          </mxGeometry>
        </mxCell>
        <mxCell id="BipAKc5l0U_uYSt-I5Qa-8" style="edgeStyle=orthogonalEdgeStyle;rounded=0;orthogonalLoop=1;jettySize=auto;html=1;entryX=0.5;entryY=0;entryDx=0;entryDy=0;" parent="1" source="BipAKc5l0U_uYSt-I5Qa-3" target="BipAKc5l0U_uYSt-I5Qa-5" edge="1">
          <mxGeometry relative="1" as="geometry" />
        </mxCell>
        <mxCell id="BipAKc5l0U_uYSt-I5Qa-3" value="计划获取" style="swimlane;whiteSpace=wrap;html=1;" parent="1" vertex="1">
          <mxGeometry x="290" y="-20" width="266" height="180" as="geometry">
            <mxRectangle x="240" y="120" width="90" height="30" as="alternateBounds" />
          </mxGeometry>
        </mxCell>
        <mxCell id="BipAKc5l0U_uYSt-I5Qa-9" style="edgeStyle=orthogonalEdgeStyle;rounded=0;orthogonalLoop=1;jettySize=auto;html=1;entryX=0.5;entryY=0;entryDx=0;entryDy=0;" parent="1" source="BipAKc5l0U_uYSt-I5Qa-5" target="BipAKc5l0U_uYSt-I5Qa-7" edge="1">
          <mxGeometry relative="1" as="geometry" />
        </mxCell>
        <mxCell id="BipAKc5l0U_uYSt-I5Qa-5" value="策略匹配" style="swimlane;whiteSpace=wrap;html=1;" parent="1" vertex="1">
          <mxGeometry x="290" y="220" width="266" height="180" as="geometry">
            <mxRectangle x="240" y="120" width="90" height="30" as="alternateBounds" />
          </mxGeometry>
        </mxCell>
        <mxCell id="BipAKc5l0U_uYSt-I5Qa-11" style="edgeStyle=orthogonalEdgeStyle;rounded=0;orthogonalLoop=1;jettySize=auto;html=1;entryX=0.5;entryY=0;entryDx=0;entryDy=0;" parent="1" source="BipAKc5l0U_uYSt-I5Qa-7" target="BipAKc5l0U_uYSt-I5Qa-10" edge="1">
          <mxGeometry relative="1" as="geometry" />
        </mxCell>
        <mxCell id="BipAKc5l0U_uYSt-I5Qa-7" value="业务动作" style="swimlane;whiteSpace=wrap;html=1;" parent="1" vertex="1">
          <mxGeometry x="290" y="470" width="266" height="180" as="geometry">
            <mxRectangle x="240" y="120" width="90" height="30" as="alternateBounds" />
          </mxGeometry>
        </mxCell>
        <mxCell id="BipAKc5l0U_uYSt-I5Qa-13" style="edgeStyle=orthogonalEdgeStyle;rounded=0;orthogonalLoop=1;jettySize=auto;html=1;" parent="1" source="BipAKc5l0U_uYSt-I5Qa-10" target="BipAKc5l0U_uYSt-I5Qa-12" edge="1">
          <mxGeometry relative="1" as="geometry" />
        </mxCell>
        <mxCell id="BipAKc5l0U_uYSt-I5Qa-10" value="素材处理" style="swimlane;whiteSpace=wrap;html=1;" parent="1" vertex="1">
          <mxGeometry x="290" y="710" width="266" height="180" as="geometry">
            <mxRectangle x="240" y="120" width="90" height="30" as="alternateBounds" />
          </mxGeometry>
        </mxCell>
        <mxCell id="BipAKc5l0U_uYSt-I5Qa-12" value="数据聚合" style="swimlane;whiteSpace=wrap;html=1;" parent="1" vertex="1">
          <mxGeometry x="290" y="950" width="266" height="180" as="geometry">
            <mxRectangle x="240" y="120" width="90" height="30" as="alternateBounds" />
          </mxGeometry>
        </mxCell>
        <mxCell id="wuC6FSRP_qt9TDbp1Nyk-1" value="" style="rounded=0;whiteSpace=wrap;html=1;" parent="1" vertex="1">
          <mxGeometry x="66" y="1754" width="553" height="73" as="geometry" />
        </mxCell>
        <mxCell id="wuC6FSRP_qt9TDbp1Nyk-2" value="素&lt;br&gt;材" style="text;html=1;strokeColor=none;fillColor=none;align=center;verticalAlign=middle;whiteSpace=wrap;rounded=0;" parent="1" vertex="1">
          <mxGeometry x="32" y="1761" width="30" height="63" as="geometry" />
        </mxCell>
        <mxCell id="wuC6FSRP_qt9TDbp1Nyk-3" value="广告" style="rounded=1;whiteSpace=wrap;html=1;fillColor=#e51400;fontColor=#ffffff;strokeColor=#B20000;" parent="1" vertex="1">
          <mxGeometry x="82" y="1772.5" width="86" height="40" as="geometry" />
        </mxCell>
        <mxCell id="wuC6FSRP_qt9TDbp1Nyk-4" value="商品" style="rounded=1;whiteSpace=wrap;html=1;fillColor=#e51400;fontColor=#ffffff;strokeColor=#B20000;" parent="1" vertex="1">
          <mxGeometry x="182" y="1772.5" width="86" height="40" as="geometry" />
        </mxCell>
        <mxCell id="wuC6FSRP_qt9TDbp1Nyk-5" value="券" style="rounded=1;whiteSpace=wrap;html=1;fillColor=#e51400;fontColor=#ffffff;strokeColor=#B20000;" parent="1" vertex="1">
          <mxGeometry x="292" y="1772" width="86" height="40" as="geometry" />
        </mxCell>
        <mxCell id="wuC6FSRP_qt9TDbp1Nyk-6" value="红包" style="rounded=1;whiteSpace=wrap;html=1;fillColor=#e51400;fontColor=#ffffff;strokeColor=#B20000;" parent="1" vertex="1">
          <mxGeometry x="402" y="1772" width="86" height="40" as="geometry" />
        </mxCell>
        <mxCell id="wuC6FSRP_qt9TDbp1Nyk-7" value="..." style="rounded=1;whiteSpace=wrap;html=1;fillColor=#e51400;fontColor=#ffffff;strokeColor=#B20000;" parent="1" vertex="1">
          <mxGeometry x="512" y="1772.5" width="86" height="40" as="geometry" />
        </mxCell>
        <mxCell id="wuC6FSRP_qt9TDbp1Nyk-9" value="" style="rounded=0;whiteSpace=wrap;html=1;" parent="1" vertex="1">
          <mxGeometry x="67" y="1655" width="552" height="64" as="geometry" />
        </mxCell>
        <mxCell id="wuC6FSRP_qt9TDbp1Nyk-10" value="策&lt;br&gt;略&lt;br&gt;" style="text;html=1;strokeColor=none;fillColor=none;align=center;verticalAlign=middle;whiteSpace=wrap;rounded=0;" parent="1" vertex="1">
          <mxGeometry x="34" y="1656" width="30" height="63" as="geometry" />
        </mxCell>
        <mxCell id="wuC6FSRP_qt9TDbp1Nyk-11" value="人群" style="rounded=1;whiteSpace=wrap;html=1;fillColor=#e51400;fontColor=#ffffff;strokeColor=#B20000;" parent="1" vertex="1">
          <mxGeometry x="84" y="1667.5" width="86" height="40" as="geometry" />
        </mxCell>
        <mxCell id="wuC6FSRP_qt9TDbp1Nyk-12" value="设备" style="rounded=1;whiteSpace=wrap;html=1;fillColor=#e51400;fontColor=#ffffff;strokeColor=#B20000;" parent="1" vertex="1">
          <mxGeometry x="184" y="1667.5" width="86" height="40" as="geometry" />
        </mxCell>
        <mxCell id="wuC6FSRP_qt9TDbp1Nyk-13" value="频控" style="rounded=1;whiteSpace=wrap;html=1;fillColor=#e51400;fontColor=#ffffff;strokeColor=#B20000;" parent="1" vertex="1">
          <mxGeometry x="294" y="1667" width="86" height="40" as="geometry" />
        </mxCell>
        <mxCell id="wuC6FSRP_qt9TDbp1Nyk-14" value="A/B实验" style="rounded=1;whiteSpace=wrap;html=1;fillColor=#e51400;fontColor=#ffffff;strokeColor=#B20000;" parent="1" vertex="1">
          <mxGeometry x="404" y="1667" width="86" height="40" as="geometry" />
        </mxCell>
        <mxCell id="wuC6FSRP_qt9TDbp1Nyk-15" value="..." style="rounded=1;whiteSpace=wrap;html=1;fillColor=#e51400;fontColor=#ffffff;strokeColor=#B20000;" parent="1" vertex="1">
          <mxGeometry x="514" y="1667.5" width="86" height="40" as="geometry" />
        </mxCell>
        <mxCell id="wuC6FSRP_qt9TDbp1Nyk-39" value="" style="rounded=0;whiteSpace=wrap;html=1;" parent="1" vertex="1">
          <mxGeometry x="67" y="1549" width="551" height="70" as="geometry" />
        </mxCell>
        <mxCell id="wuC6FSRP_qt9TDbp1Nyk-40" value="投&lt;br&gt;放&lt;br&gt;" style="text;html=1;strokeColor=none;fillColor=none;align=center;verticalAlign=middle;whiteSpace=wrap;rounded=0;" parent="1" vertex="1">
          <mxGeometry x="37" y="1555" width="30" height="63" as="geometry" />
        </mxCell>
        <mxCell id="wuC6FSRP_qt9TDbp1Nyk-41" value="触点" style="rounded=1;whiteSpace=wrap;html=1;fillColor=#e51400;fontColor=#ffffff;strokeColor=#B20000;" parent="1" vertex="1">
          <mxGeometry x="87" y="1566.5" width="86" height="40" as="geometry" />
        </mxCell>
        <mxCell id="wuC6FSRP_qt9TDbp1Nyk-42" value="策略" style="rounded=1;whiteSpace=wrap;html=1;fillColor=#e51400;fontColor=#ffffff;strokeColor=#B20000;" parent="1" vertex="1">
          <mxGeometry x="187" y="1566.5" width="86" height="40" as="geometry" />
        </mxCell>
        <mxCell id="wuC6FSRP_qt9TDbp1Nyk-43" value="素材" style="rounded=1;whiteSpace=wrap;html=1;fillColor=#e51400;fontColor=#ffffff;strokeColor=#B20000;" parent="1" vertex="1">
          <mxGeometry x="297" y="1566" width="86" height="40" as="geometry" />
        </mxCell>
        <mxCell id="wuC6FSRP_qt9TDbp1Nyk-44" value="动作" style="rounded=1;whiteSpace=wrap;html=1;fillColor=#e51400;fontColor=#ffffff;strokeColor=#B20000;" parent="1" vertex="1">
          <mxGeometry x="407" y="1566" width="86" height="40" as="geometry" />
        </mxCell>
        <mxCell id="wuC6FSRP_qt9TDbp1Nyk-45" value="..." style="rounded=1;whiteSpace=wrap;html=1;fillColor=#e51400;fontColor=#ffffff;strokeColor=#B20000;" parent="1" vertex="1">
          <mxGeometry x="517" y="1566.5" width="86" height="40" as="geometry" />
        </mxCell>
        <mxCell id="wuC6FSRP_qt9TDbp1Nyk-46" value="" style="rounded=0;whiteSpace=wrap;html=1;" parent="1" vertex="1">
          <mxGeometry x="676" y="1505" width="117" height="325" as="geometry" />
        </mxCell>
        <mxCell id="wuC6FSRP_qt9TDbp1Nyk-48" value="外部依赖" style="text;html=1;strokeColor=none;fillColor=none;align=center;verticalAlign=middle;whiteSpace=wrap;rounded=0;" parent="1" vertex="1">
          <mxGeometry x="705" y="1800" width="60" height="30" as="geometry" />
        </mxCell>
        <mxCell id="wuC6FSRP_qt9TDbp1Nyk-49" value="实时营销" style="rounded=1;whiteSpace=wrap;html=1;fillColor=#f0a30a;fontColor=#000000;strokeColor=#BD7000;" parent="1" vertex="1">
          <mxGeometry x="684.5" y="1517" width="100" height="30" as="geometry" />
        </mxCell>
        <mxCell id="wuC6FSRP_qt9TDbp1Nyk-50" value="UserServer" style="rounded=1;whiteSpace=wrap;html=1;fillColor=#f0a30a;fontColor=#000000;strokeColor=#BD7000;" parent="1" vertex="1">
          <mxGeometry x="685" y="1555" width="100" height="30" as="geometry" />
        </mxCell>
        <mxCell id="wuC6FSRP_qt9TDbp1Nyk-51" value="&lt;span style=&quot;font-weight: normal;&quot;&gt;火眼&lt;/span&gt;" style="rounded=1;whiteSpace=wrap;html=1;fontStyle=1;fillColor=#f0a30a;fontColor=#000000;strokeColor=#BD7000;" parent="1" vertex="1">
          <mxGeometry x="684.5" y="1595" width="100" height="30" as="geometry" />
        </mxCell>
        <mxCell id="wuC6FSRP_qt9TDbp1Nyk-52" value="素材中心" style="rounded=1;whiteSpace=wrap;html=1;fontStyle=0;fillColor=#f0a30a;fontColor=#000000;strokeColor=#BD7000;" parent="1" vertex="1">
          <mxGeometry x="685" y="1637" width="100" height="28" as="geometry" />
        </mxCell>
        <mxCell id="wuC6FSRP_qt9TDbp1Nyk-53" value="礼包" style="rounded=1;whiteSpace=wrap;html=1;fontStyle=1;fillColor=#f0a30a;fontColor=#000000;strokeColor=#BD7000;" parent="1" vertex="1">
          <mxGeometry x="684.5" y="1676" width="100" height="30" as="geometry" />
        </mxCell>
        <mxCell id="wuC6FSRP_qt9TDbp1Nyk-54" value="三单礼" style="rounded=1;whiteSpace=wrap;html=1;fontStyle=1;fillColor=#f0a30a;fontColor=#000000;strokeColor=#BD7000;" parent="1" vertex="1">
          <mxGeometry x="684.5" y="1719" width="100" height="30" as="geometry" />
        </mxCell>
        <mxCell id="wuC6FSRP_qt9TDbp1Nyk-55" value="省省卡" style="rounded=1;whiteSpace=wrap;html=1;fontStyle=0;fillColor=#f0a30a;fontColor=#000000;strokeColor=#BD7000;" parent="1" vertex="1">
          <mxGeometry x="684.5" y="1761" width="100" height="26" as="geometry" />
        </mxCell>
        <mxCell id="wuC6FSRP_qt9TDbp1Nyk-56" value="" style="rounded=0;whiteSpace=wrap;html=1;" parent="1" vertex="1">
          <mxGeometry x="67" y="1446" width="552" height="66" as="geometry" />
        </mxCell>
        <mxCell id="wuC6FSRP_qt9TDbp1Nyk-57" value="场&lt;br&gt;景&lt;br&gt;" style="text;html=1;strokeColor=none;fillColor=none;align=center;verticalAlign=middle;whiteSpace=wrap;rounded=0;" parent="1" vertex="1">
          <mxGeometry x="40" y="1454" width="30" height="63" as="geometry" />
        </mxCell>
        <mxCell id="wuC6FSRP_qt9TDbp1Nyk-58" value="诺曼底登录" style="rounded=1;whiteSpace=wrap;html=1;fillColor=#e51400;fontColor=#ffffff;strokeColor=#B20000;" parent="1" vertex="1">
          <mxGeometry x="89" y="1459.5" width="86" height="40" as="geometry" />
        </mxCell>
        <mxCell id="wuC6FSRP_qt9TDbp1Nyk-59" value="干预组件" style="rounded=1;whiteSpace=wrap;html=1;fillColor=#e51400;fontColor=#ffffff;strokeColor=#B20000;" parent="1" vertex="1">
          <mxGeometry x="189" y="1459.5" width="86" height="40" as="geometry" />
        </mxCell>
        <mxCell id="wuC6FSRP_qt9TDbp1Nyk-60" value="三单礼" style="rounded=1;whiteSpace=wrap;html=1;fillColor=#e51400;fontColor=#ffffff;strokeColor=#B20000;" parent="1" vertex="1">
          <mxGeometry x="299" y="1459" width="86" height="40" as="geometry" />
        </mxCell>
        <mxCell id="wuC6FSRP_qt9TDbp1Nyk-61" value="省省卡" style="rounded=1;whiteSpace=wrap;html=1;fillColor=#e51400;fontColor=#ffffff;strokeColor=#B20000;" parent="1" vertex="1">
          <mxGeometry x="409" y="1459" width="86" height="40" as="geometry" />
        </mxCell>
        <mxCell id="wuC6FSRP_qt9TDbp1Nyk-62" value="..." style="rounded=1;whiteSpace=wrap;html=1;fillColor=#e51400;fontColor=#ffffff;strokeColor=#B20000;" parent="1" vertex="1">
          <mxGeometry x="519" y="1459.5" width="86" height="40" as="geometry" />
        </mxCell>
        <mxCell id="wuC6FSRP_qt9TDbp1Nyk-65" value="" style="rounded=0;whiteSpace=wrap;html=1;" parent="1" vertex="1">
          <mxGeometry x="70" y="1340" width="551" height="70" as="geometry" />
        </mxCell>
        <mxCell id="wuC6FSRP_qt9TDbp1Nyk-66" value="触&lt;br&gt;点" style="text;html=1;strokeColor=none;fillColor=none;align=center;verticalAlign=middle;whiteSpace=wrap;rounded=0;" parent="1" vertex="1">
          <mxGeometry x="44" y="1347" width="30" height="63" as="geometry" />
        </mxCell>
        <mxCell id="wuC6FSRP_qt9TDbp1Nyk-67" value="首页" style="rounded=1;whiteSpace=wrap;html=1;fillColor=#e51400;fontColor=#ffffff;strokeColor=#B20000;" parent="1" vertex="1">
          <mxGeometry x="92" y="1357.5" width="86" height="40" as="geometry" />
        </mxCell>
        <mxCell id="wuC6FSRP_qt9TDbp1Nyk-68" value="通天塔" style="rounded=1;whiteSpace=wrap;html=1;fillColor=#e51400;fontColor=#ffffff;strokeColor=#B20000;" parent="1" vertex="1">
          <mxGeometry x="192" y="1357.5" width="86" height="40" as="geometry" />
        </mxCell>
        <mxCell id="wuC6FSRP_qt9TDbp1Nyk-69" value="商详" style="rounded=1;whiteSpace=wrap;html=1;fillColor=#e51400;fontColor=#ffffff;strokeColor=#B20000;" parent="1" vertex="1">
          <mxGeometry x="302" y="1357" width="86" height="40" as="geometry" />
        </mxCell>
        <mxCell id="wuC6FSRP_qt9TDbp1Nyk-70" value="频道" style="rounded=1;whiteSpace=wrap;html=1;fillColor=#e51400;fontColor=#ffffff;strokeColor=#B20000;" parent="1" vertex="1">
          <mxGeometry x="412" y="1357" width="86" height="40" as="geometry" />
        </mxCell>
        <mxCell id="wuC6FSRP_qt9TDbp1Nyk-71" value="..." style="rounded=1;whiteSpace=wrap;html=1;fillColor=#e51400;fontColor=#ffffff;strokeColor=#B20000;" parent="1" vertex="1">
          <mxGeometry x="522" y="1357.5" width="86" height="40" as="geometry" />
        </mxCell>
        <mxCell id="wuC6FSRP_qt9TDbp1Nyk-79" value="" style="shape=flexArrow;endArrow=classic;html=1;rounded=0;exitX=0.5;exitY=0;exitDx=0;exitDy=0;" parent="1" edge="1">
          <mxGeometry width="50" height="50" relative="1" as="geometry">
            <mxPoint x="326" y="1446" as="sourcePoint" />
            <mxPoint x="326.5" y="1410" as="targetPoint" />
          </mxGeometry>
        </mxCell>
        <mxCell id="Sp962jMv0brXka_x88yt-1" value="" style="shape=flexArrow;endArrow=classic;html=1;rounded=0;" edge="1" parent="1">
          <mxGeometry width="50" height="50" relative="1" as="geometry">
            <mxPoint x="619" y="1788" as="sourcePoint" />
            <mxPoint x="675" y="1790" as="targetPoint" />
          </mxGeometry>
        </mxCell>
        <mxCell id="Sp962jMv0brXka_x88yt-2" value="" style="shape=flexArrow;endArrow=classic;html=1;rounded=0;exitX=0.5;exitY=0;exitDx=0;exitDy=0;" edge="1" parent="1">
          <mxGeometry width="50" height="50" relative="1" as="geometry">
            <mxPoint x="327" y="1549" as="sourcePoint" />
            <mxPoint x="327.5" y="1513" as="targetPoint" />
          </mxGeometry>
        </mxCell>
        <mxCell id="Sp962jMv0brXka_x88yt-3" value="" style="shape=flexArrow;endArrow=classic;html=1;rounded=0;exitX=0.5;exitY=0;exitDx=0;exitDy=0;" edge="1" parent="1">
          <mxGeometry width="50" height="50" relative="1" as="geometry">
            <mxPoint x="326" y="1655" as="sourcePoint" />
            <mxPoint x="326.5" y="1619" as="targetPoint" />
          </mxGeometry>
        </mxCell>
        <mxCell id="Sp962jMv0brXka_x88yt-4" value="" style="shape=flexArrow;endArrow=classic;html=1;rounded=0;exitX=0.5;exitY=0;exitDx=0;exitDy=0;" edge="1" parent="1">
          <mxGeometry width="50" height="50" relative="1" as="geometry">
            <mxPoint x="329" y="1754" as="sourcePoint" />
            <mxPoint x="329.5" y="1718" as="targetPoint" />
          </mxGeometry>
        </mxCell>
        <mxCell id="Sp962jMv0brXka_x88yt-5" value="" style="shape=flexArrow;endArrow=classic;html=1;rounded=0;" edge="1" parent="1">
          <mxGeometry width="50" height="50" relative="1" as="geometry">
            <mxPoint x="620" y="1686" as="sourcePoint" />
            <mxPoint x="676" y="1688" as="targetPoint" />
          </mxGeometry>
        </mxCell>
      </root>
    </mxGraphModel>
  </diagram>
</mxfile>
